<mxfile host="app.diagrams.net" modified="2023-08-30T15:11:08.979Z" agent="Mozilla/5.0 (Windows NT 10.0; Win64; x64) AppleWebKit/537.36 (KHTML, like Gecko) Chrome/116.0.0.0 Safari/537.36 Edg/116.0.1938.62" etag="aU7r8Ia7uqMIzlmTZWBi" version="21.6.8" type="github">
  <diagram name="第 1 页" id="eJCv2PBCAG6yWB4a6nhj">
    <mxGraphModel dx="2019" dy="1116" grid="1" gridSize="10" guides="1" tooltips="1" connect="1" arrows="1" fold="1" page="1" pageScale="1" pageWidth="1654" pageHeight="2336" math="0" shadow="0">
      <root>
        <mxCell id="0" />
        <mxCell id="1" parent="0" />
        <mxCell id="P4ueUrn8jgldeYzejfWz-32" value="" style="ellipse;html=1;shape=endState;fillColor=#000000;strokeColor=#ff0000;" vertex="1" parent="1">
          <mxGeometry x="585" y="1850" width="30" height="30" as="geometry" />
        </mxCell>
        <mxCell id="P4ueUrn8jgldeYzejfWz-33" value="" style="ellipse;html=1;shape=startState;fillColor=#000000;strokeColor=#ff0000;" vertex="1" parent="1">
          <mxGeometry x="342.5" y="1330" width="30" height="30" as="geometry" />
        </mxCell>
        <mxCell id="P4ueUrn8jgldeYzejfWz-34" value="" style="edgeStyle=orthogonalEdgeStyle;html=1;verticalAlign=bottom;endArrow=open;endSize=8;strokeColor=#ff0000;rounded=0;entryX=0.5;entryY=0;entryDx=0;entryDy=0;" edge="1" parent="1" source="P4ueUrn8jgldeYzejfWz-33" target="P4ueUrn8jgldeYzejfWz-36">
          <mxGeometry relative="1" as="geometry">
            <mxPoint x="357.5" y="1420" as="targetPoint" />
          </mxGeometry>
        </mxCell>
        <mxCell id="P4ueUrn8jgldeYzejfWz-35" style="edgeStyle=orthogonalEdgeStyle;rounded=0;orthogonalLoop=1;jettySize=auto;html=1;" edge="1" parent="1" source="P4ueUrn8jgldeYzejfWz-36" target="P4ueUrn8jgldeYzejfWz-38">
          <mxGeometry relative="1" as="geometry" />
        </mxCell>
        <mxCell id="P4ueUrn8jgldeYzejfWz-36" value="&lt;font style=&quot;font-size: 16px;&quot; face=&quot;Lucida Console&quot;&gt;玩家授权打开麦克风&lt;/font&gt;" style="rounded=1;whiteSpace=wrap;html=1;" vertex="1" parent="1">
          <mxGeometry x="267.5" y="1410" width="180" height="40" as="geometry" />
        </mxCell>
        <mxCell id="P4ueUrn8jgldeYzejfWz-37" style="edgeStyle=orthogonalEdgeStyle;rounded=0;orthogonalLoop=1;jettySize=auto;html=1;exitX=1;exitY=0.5;exitDx=0;exitDy=0;entryX=0;entryY=0.5;entryDx=0;entryDy=0;" edge="1" parent="1" source="P4ueUrn8jgldeYzejfWz-38" target="P4ueUrn8jgldeYzejfWz-40">
          <mxGeometry relative="1" as="geometry" />
        </mxCell>
        <mxCell id="P4ueUrn8jgldeYzejfWz-38" value="&lt;font face=&quot;Lucida Console&quot; style=&quot;font-size: 16px;&quot;&gt;朗读对应示范文字&lt;/font&gt;" style="rounded=1;whiteSpace=wrap;html=1;" vertex="1" parent="1">
          <mxGeometry x="267.5" y="1490" width="180" height="40" as="geometry" />
        </mxCell>
        <mxCell id="P4ueUrn8jgldeYzejfWz-39" style="edgeStyle=orthogonalEdgeStyle;rounded=0;orthogonalLoop=1;jettySize=auto;html=1;exitX=1;exitY=0.5;exitDx=0;exitDy=0;entryX=0;entryY=0.5;entryDx=0;entryDy=0;" edge="1" parent="1" source="P4ueUrn8jgldeYzejfWz-40" target="P4ueUrn8jgldeYzejfWz-42">
          <mxGeometry relative="1" as="geometry" />
        </mxCell>
        <mxCell id="P4ueUrn8jgldeYzejfWz-40" value="&lt;font face=&quot;Lucida Console&quot; style=&quot;font-size: 16px;&quot;&gt;上传玩家录音音频&lt;/font&gt;" style="rounded=1;whiteSpace=wrap;html=1;" vertex="1" parent="1">
          <mxGeometry x="512.5" y="1490" width="180" height="40" as="geometry" />
        </mxCell>
        <mxCell id="P4ueUrn8jgldeYzejfWz-41" style="edgeStyle=orthogonalEdgeStyle;rounded=0;orthogonalLoop=1;jettySize=auto;html=1;exitX=0.5;exitY=1;exitDx=0;exitDy=0;entryX=1;entryY=0.5;entryDx=0;entryDy=0;" edge="1" parent="1" source="P4ueUrn8jgldeYzejfWz-42" target="P4ueUrn8jgldeYzejfWz-47">
          <mxGeometry relative="1" as="geometry">
            <mxPoint x="852.5" y="1580" as="targetPoint" />
            <Array as="points">
              <mxPoint x="852.5" y="1600" />
            </Array>
          </mxGeometry>
        </mxCell>
        <mxCell id="P4ueUrn8jgldeYzejfWz-42" value="&lt;font size=&quot;3&quot; face=&quot;Lucida Console&quot;&gt;提取年龄信息&lt;/font&gt;" style="rounded=1;whiteSpace=wrap;html=1;" vertex="1" parent="1">
          <mxGeometry x="762.5" y="1490" width="180" height="40" as="geometry" />
        </mxCell>
        <mxCell id="P4ueUrn8jgldeYzejfWz-43" style="edgeStyle=orthogonalEdgeStyle;rounded=0;orthogonalLoop=1;jettySize=auto;html=1;exitX=0;exitY=0.5;exitDx=0;exitDy=0;entryX=1;entryY=0.5;entryDx=0;entryDy=0;" edge="1" parent="1" source="P4ueUrn8jgldeYzejfWz-47" target="P4ueUrn8jgldeYzejfWz-54">
          <mxGeometry relative="1" as="geometry" />
        </mxCell>
        <mxCell id="P4ueUrn8jgldeYzejfWz-44" value="未成年" style="edgeLabel;html=1;align=center;verticalAlign=middle;resizable=0;points=[];" vertex="1" connectable="0" parent="P4ueUrn8jgldeYzejfWz-43">
          <mxGeometry x="-0.0439" y="-1" relative="1" as="geometry">
            <mxPoint x="1" as="offset" />
          </mxGeometry>
        </mxCell>
        <mxCell id="P4ueUrn8jgldeYzejfWz-45" style="edgeStyle=orthogonalEdgeStyle;rounded=0;orthogonalLoop=1;jettySize=auto;html=1;exitX=0.5;exitY=1;exitDx=0;exitDy=0;" edge="1" parent="1" source="P4ueUrn8jgldeYzejfWz-47" target="P4ueUrn8jgldeYzejfWz-49">
          <mxGeometry relative="1" as="geometry" />
        </mxCell>
        <mxCell id="P4ueUrn8jgldeYzejfWz-46" value="成年" style="edgeLabel;html=1;align=center;verticalAlign=middle;resizable=0;points=[];" vertex="1" connectable="0" parent="P4ueUrn8jgldeYzejfWz-45">
          <mxGeometry x="-0.0444" y="4" relative="1" as="geometry">
            <mxPoint as="offset" />
          </mxGeometry>
        </mxCell>
        <mxCell id="P4ueUrn8jgldeYzejfWz-47" value="&lt;span style=&quot;font-size: 14px;&quot;&gt;预估是否未成年&lt;/span&gt;" style="rhombus;whiteSpace=wrap;html=1;" vertex="1" parent="1">
          <mxGeometry x="512.5" y="1570" width="175" height="60" as="geometry" />
        </mxCell>
        <mxCell id="P4ueUrn8jgldeYzejfWz-48" style="edgeStyle=orthogonalEdgeStyle;rounded=0;orthogonalLoop=1;jettySize=auto;html=1;entryX=0.5;entryY=0;entryDx=0;entryDy=0;" edge="1" parent="1" source="P4ueUrn8jgldeYzejfWz-49" target="P4ueUrn8jgldeYzejfWz-58">
          <mxGeometry relative="1" as="geometry" />
        </mxCell>
        <mxCell id="P4ueUrn8jgldeYzejfWz-49" value="&lt;font size=&quot;3&quot; face=&quot;Lucida Console&quot;&gt;验证通过&lt;/font&gt;" style="rounded=1;whiteSpace=wrap;html=1;" vertex="1" parent="1">
          <mxGeometry x="547.5" y="1720" width="105" height="30" as="geometry" />
        </mxCell>
        <mxCell id="P4ueUrn8jgldeYzejfWz-50" style="edgeStyle=orthogonalEdgeStyle;rounded=0;orthogonalLoop=1;jettySize=auto;html=1;exitX=0.5;exitY=0;exitDx=0;exitDy=0;entryX=0.5;entryY=1;entryDx=0;entryDy=0;" edge="1" parent="1" source="P4ueUrn8jgldeYzejfWz-54" target="P4ueUrn8jgldeYzejfWz-38">
          <mxGeometry relative="1" as="geometry" />
        </mxCell>
        <mxCell id="P4ueUrn8jgldeYzejfWz-51" value="是" style="edgeLabel;html=1;align=center;verticalAlign=middle;resizable=0;points=[];" vertex="1" connectable="0" parent="P4ueUrn8jgldeYzejfWz-50">
          <mxGeometry x="-0.0222" y="-1" relative="1" as="geometry">
            <mxPoint as="offset" />
          </mxGeometry>
        </mxCell>
        <mxCell id="P4ueUrn8jgldeYzejfWz-52" style="edgeStyle=orthogonalEdgeStyle;rounded=0;orthogonalLoop=1;jettySize=auto;html=1;exitX=0.5;exitY=1;exitDx=0;exitDy=0;entryX=0.5;entryY=0;entryDx=0;entryDy=0;" edge="1" parent="1" source="P4ueUrn8jgldeYzejfWz-54" target="P4ueUrn8jgldeYzejfWz-56">
          <mxGeometry relative="1" as="geometry" />
        </mxCell>
        <mxCell id="P4ueUrn8jgldeYzejfWz-53" value="否" style="edgeLabel;html=1;align=center;verticalAlign=middle;resizable=0;points=[];" vertex="1" connectable="0" parent="P4ueUrn8jgldeYzejfWz-52">
          <mxGeometry x="-0.2222" y="-1" relative="1" as="geometry">
            <mxPoint as="offset" />
          </mxGeometry>
        </mxCell>
        <mxCell id="P4ueUrn8jgldeYzejfWz-54" value="&lt;span style=&quot;font-size: 14px;&quot;&gt;是否重试&lt;/span&gt;" style="rhombus;whiteSpace=wrap;html=1;" vertex="1" parent="1">
          <mxGeometry x="296.25" y="1620" width="122.5" height="50" as="geometry" />
        </mxCell>
        <mxCell id="P4ueUrn8jgldeYzejfWz-55" style="edgeStyle=orthogonalEdgeStyle;rounded=0;orthogonalLoop=1;jettySize=auto;html=1;exitX=0.5;exitY=1;exitDx=0;exitDy=0;entryX=0;entryY=0.5;entryDx=0;entryDy=0;" edge="1" parent="1" source="P4ueUrn8jgldeYzejfWz-56" target="P4ueUrn8jgldeYzejfWz-58">
          <mxGeometry relative="1" as="geometry" />
        </mxCell>
        <mxCell id="P4ueUrn8jgldeYzejfWz-56" value="&lt;font size=&quot;3&quot; face=&quot;Lucida Console&quot;&gt;验证不通过&lt;/font&gt;" style="rounded=1;whiteSpace=wrap;html=1;" vertex="1" parent="1">
          <mxGeometry x="305" y="1760" width="105" height="30" as="geometry" />
        </mxCell>
        <mxCell id="P4ueUrn8jgldeYzejfWz-57" style="edgeStyle=orthogonalEdgeStyle;rounded=0;orthogonalLoop=1;jettySize=auto;html=1;exitX=1;exitY=0.5;exitDx=0;exitDy=0;entryX=0;entryY=0.5;entryDx=0;entryDy=0;" edge="1" parent="1" source="P4ueUrn8jgldeYzejfWz-58" target="P4ueUrn8jgldeYzejfWz-32">
          <mxGeometry relative="1" as="geometry" />
        </mxCell>
        <mxCell id="P4ueUrn8jgldeYzejfWz-58" value="&lt;font size=&quot;3&quot; face=&quot;Lucida Console&quot;&gt;向游戏测发送结果回调&lt;/font&gt;" style="rounded=1;whiteSpace=wrap;html=1;" vertex="1" parent="1">
          <mxGeometry x="380" y="1850" width="182.5" height="30" as="geometry" />
        </mxCell>
        <mxCell id="P4ueUrn8jgldeYzejfWz-68" value="Pool" style="swimlane;childLayout=stackLayout;resizeParent=1;resizeParentMax=0;startSize=20;html=1;" vertex="1" parent="1">
          <mxGeometry x="129.38" width="633.75" height="750" as="geometry" />
        </mxCell>
        <mxCell id="P4ueUrn8jgldeYzejfWz-69" value="用户" style="swimlane;startSize=20;html=1;" vertex="1" parent="P4ueUrn8jgldeYzejfWz-68">
          <mxGeometry y="20" width="180" height="730" as="geometry" />
        </mxCell>
        <mxCell id="kbp1W1BHpDVRfjKskcVf-2" value="" style="ellipse;html=1;shape=startState;fillColor=#000000;strokeColor=#ff0000;" parent="P4ueUrn8jgldeYzejfWz-69" vertex="1">
          <mxGeometry x="75.62" y="20" width="30" height="30" as="geometry" />
        </mxCell>
        <mxCell id="kbp1W1BHpDVRfjKskcVf-3" value="" style="edgeStyle=orthogonalEdgeStyle;html=1;verticalAlign=bottom;endArrow=open;endSize=8;strokeColor=#ff0000;rounded=0;entryX=0.5;entryY=0;entryDx=0;entryDy=0;" parent="P4ueUrn8jgldeYzejfWz-69" source="kbp1W1BHpDVRfjKskcVf-2" target="kbp1W1BHpDVRfjKskcVf-5" edge="1">
          <mxGeometry relative="1" as="geometry">
            <mxPoint x="50" y="120" as="targetPoint" />
          </mxGeometry>
        </mxCell>
        <mxCell id="kbp1W1BHpDVRfjKskcVf-5" value="&lt;font style=&quot;font-size: 16px;&quot; face=&quot;Lucida Console&quot;&gt;玩家授权打开麦克风&lt;/font&gt;" style="rounded=1;whiteSpace=wrap;html=1;" parent="P4ueUrn8jgldeYzejfWz-69" vertex="1">
          <mxGeometry x="10.620000000000001" y="80" width="160" height="40" as="geometry" />
        </mxCell>
        <mxCell id="kbp1W1BHpDVRfjKskcVf-7" value="&lt;font face=&quot;Lucida Console&quot; style=&quot;font-size: 16px;&quot;&gt;朗读对应示范文字&lt;/font&gt;" style="rounded=1;whiteSpace=wrap;html=1;" parent="P4ueUrn8jgldeYzejfWz-69" vertex="1">
          <mxGeometry x="20.619999999999997" y="160" width="140" height="40" as="geometry" />
        </mxCell>
        <mxCell id="kbp1W1BHpDVRfjKskcVf-4" style="edgeStyle=orthogonalEdgeStyle;rounded=0;orthogonalLoop=1;jettySize=auto;html=1;" parent="P4ueUrn8jgldeYzejfWz-69" source="kbp1W1BHpDVRfjKskcVf-5" target="kbp1W1BHpDVRfjKskcVf-7" edge="1">
          <mxGeometry relative="1" as="geometry" />
        </mxCell>
        <mxCell id="P4ueUrn8jgldeYzejfWz-70" value="声纹录入模块" style="swimlane;startSize=20;html=1;" vertex="1" parent="P4ueUrn8jgldeYzejfWz-68">
          <mxGeometry x="180" y="20" width="180" height="730" as="geometry" />
        </mxCell>
        <mxCell id="kbp1W1BHpDVRfjKskcVf-9" value="&lt;font face=&quot;Lucida Console&quot; style=&quot;font-size: 16px;&quot;&gt;上传玩家录音音频&lt;/font&gt;" style="rounded=1;whiteSpace=wrap;html=1;" parent="P4ueUrn8jgldeYzejfWz-70" vertex="1">
          <mxGeometry x="15" y="160" width="150" height="40" as="geometry" />
        </mxCell>
        <mxCell id="kbp1W1BHpDVRfjKskcVf-19" style="edgeStyle=orthogonalEdgeStyle;rounded=0;orthogonalLoop=1;jettySize=auto;html=1;exitX=1;exitY=0.5;exitDx=0;exitDy=0;entryX=0;entryY=0.5;entryDx=0;entryDy=0;" parent="P4ueUrn8jgldeYzejfWz-68" source="kbp1W1BHpDVRfjKskcVf-7" target="kbp1W1BHpDVRfjKskcVf-9" edge="1">
          <mxGeometry relative="1" as="geometry" />
        </mxCell>
        <mxCell id="kbp1W1BHpDVRfjKskcVf-20" style="edgeStyle=orthogonalEdgeStyle;rounded=0;orthogonalLoop=1;jettySize=auto;html=1;exitX=1;exitY=0.5;exitDx=0;exitDy=0;entryX=0;entryY=0.5;entryDx=0;entryDy=0;" parent="P4ueUrn8jgldeYzejfWz-68" source="kbp1W1BHpDVRfjKskcVf-9" target="kbp1W1BHpDVRfjKskcVf-13" edge="1">
          <mxGeometry relative="1" as="geometry" />
        </mxCell>
        <mxCell id="kbp1W1BHpDVRfjKskcVf-31" style="edgeStyle=orthogonalEdgeStyle;rounded=0;orthogonalLoop=1;jettySize=auto;html=1;exitX=0;exitY=0.5;exitDx=0;exitDy=0;entryX=0.5;entryY=1;entryDx=0;entryDy=0;" parent="P4ueUrn8jgldeYzejfWz-68" source="kbp1W1BHpDVRfjKskcVf-28" target="kbp1W1BHpDVRfjKskcVf-7" edge="1">
          <mxGeometry relative="1" as="geometry" />
        </mxCell>
        <mxCell id="kbp1W1BHpDVRfjKskcVf-32" value="是" style="edgeLabel;html=1;align=center;verticalAlign=middle;resizable=0;points=[];" parent="kbp1W1BHpDVRfjKskcVf-31" vertex="1" connectable="0">
          <mxGeometry x="-0.0222" y="-1" relative="1" as="geometry">
            <mxPoint as="offset" />
          </mxGeometry>
        </mxCell>
        <mxCell id="P4ueUrn8jgldeYzejfWz-71" value="年龄预估模块" style="swimlane;startSize=20;html=1;" vertex="1" parent="P4ueUrn8jgldeYzejfWz-68">
          <mxGeometry x="360" y="20" width="273.75" height="730" as="geometry" />
        </mxCell>
        <mxCell id="P4ueUrn8jgldeYzejfWz-74" style="edgeStyle=orthogonalEdgeStyle;rounded=0;orthogonalLoop=1;jettySize=auto;html=1;entryX=0.5;entryY=0;entryDx=0;entryDy=0;" edge="1" parent="P4ueUrn8jgldeYzejfWz-71" source="kbp1W1BHpDVRfjKskcVf-13" target="kbp1W1BHpDVRfjKskcVf-15">
          <mxGeometry relative="1" as="geometry" />
        </mxCell>
        <mxCell id="kbp1W1BHpDVRfjKskcVf-13" value="&lt;font size=&quot;3&quot; face=&quot;Lucida Console&quot;&gt;提取年龄信息&lt;/font&gt;" style="rounded=1;whiteSpace=wrap;html=1;" parent="P4ueUrn8jgldeYzejfWz-71" vertex="1">
          <mxGeometry x="30" y="160" width="180" height="40" as="geometry" />
        </mxCell>
        <mxCell id="kbp1W1BHpDVRfjKskcVf-15" value="&lt;span style=&quot;font-size: 14px;&quot;&gt;预估是否未成年&lt;/span&gt;" style="rhombus;whiteSpace=wrap;html=1;" parent="P4ueUrn8jgldeYzejfWz-71" vertex="1">
          <mxGeometry x="32.5" y="270" width="175" height="60" as="geometry" />
        </mxCell>
        <mxCell id="kbp1W1BHpDVRfjKskcVf-28" value="&lt;span style=&quot;font-size: 14px;&quot;&gt;是否重试&lt;/span&gt;" style="rhombus;whiteSpace=wrap;html=1;" parent="P4ueUrn8jgldeYzejfWz-71" vertex="1">
          <mxGeometry x="58.75" y="410" width="122.5" height="50" as="geometry" />
        </mxCell>
        <mxCell id="kbp1W1BHpDVRfjKskcVf-29" style="edgeStyle=orthogonalEdgeStyle;rounded=0;orthogonalLoop=1;jettySize=auto;html=1;exitX=0.5;exitY=1;exitDx=0;exitDy=0;entryX=0.5;entryY=0;entryDx=0;entryDy=0;" parent="P4ueUrn8jgldeYzejfWz-71" source="kbp1W1BHpDVRfjKskcVf-15" target="kbp1W1BHpDVRfjKskcVf-28" edge="1">
          <mxGeometry relative="1" as="geometry" />
        </mxCell>
        <mxCell id="kbp1W1BHpDVRfjKskcVf-30" value="未成年" style="edgeLabel;html=1;align=center;verticalAlign=middle;resizable=0;points=[];" parent="kbp1W1BHpDVRfjKskcVf-29" vertex="1" connectable="0">
          <mxGeometry x="-0.0439" y="-1" relative="1" as="geometry">
            <mxPoint x="1" as="offset" />
          </mxGeometry>
        </mxCell>
        <mxCell id="kbp1W1BHpDVRfjKskcVf-23" value="&lt;font size=&quot;3&quot; face=&quot;Lucida Console&quot;&gt;验证通过&lt;/font&gt;" style="rounded=1;whiteSpace=wrap;html=1;" parent="P4ueUrn8jgldeYzejfWz-71" vertex="1">
          <mxGeometry x="160" y="540" width="105" height="30" as="geometry" />
        </mxCell>
        <mxCell id="H0Yiqih6-B8NDiTEWmIC-1" style="edgeStyle=orthogonalEdgeStyle;rounded=0;orthogonalLoop=1;jettySize=auto;html=1;exitX=1;exitY=0.5;exitDx=0;exitDy=0;" parent="P4ueUrn8jgldeYzejfWz-71" source="kbp1W1BHpDVRfjKskcVf-15" target="kbp1W1BHpDVRfjKskcVf-23" edge="1">
          <mxGeometry relative="1" as="geometry">
            <Array as="points">
              <mxPoint x="220" y="300" />
            </Array>
          </mxGeometry>
        </mxCell>
        <mxCell id="H0Yiqih6-B8NDiTEWmIC-2" value="成年" style="edgeLabel;html=1;align=center;verticalAlign=middle;resizable=0;points=[];" parent="H0Yiqih6-B8NDiTEWmIC-1" vertex="1" connectable="0">
          <mxGeometry x="-0.0444" y="4" relative="1" as="geometry">
            <mxPoint as="offset" />
          </mxGeometry>
        </mxCell>
        <mxCell id="kbp1W1BHpDVRfjKskcVf-33" value="&lt;font size=&quot;3&quot; face=&quot;Lucida Console&quot;&gt;验证不通过&lt;/font&gt;" style="rounded=1;whiteSpace=wrap;html=1;" parent="P4ueUrn8jgldeYzejfWz-71" vertex="1">
          <mxGeometry x="10" y="540" width="105" height="30" as="geometry" />
        </mxCell>
        <mxCell id="kbp1W1BHpDVRfjKskcVf-34" style="edgeStyle=orthogonalEdgeStyle;rounded=0;orthogonalLoop=1;jettySize=auto;html=1;exitX=0.5;exitY=1;exitDx=0;exitDy=0;entryX=0.5;entryY=0;entryDx=0;entryDy=0;" parent="P4ueUrn8jgldeYzejfWz-71" source="kbp1W1BHpDVRfjKskcVf-28" target="kbp1W1BHpDVRfjKskcVf-33" edge="1">
          <mxGeometry relative="1" as="geometry" />
        </mxCell>
        <mxCell id="kbp1W1BHpDVRfjKskcVf-36" value="否" style="edgeLabel;html=1;align=center;verticalAlign=middle;resizable=0;points=[];" parent="kbp1W1BHpDVRfjKskcVf-34" vertex="1" connectable="0">
          <mxGeometry x="-0.2222" y="-1" relative="1" as="geometry">
            <mxPoint as="offset" />
          </mxGeometry>
        </mxCell>
        <mxCell id="P4ueUrn8jgldeYzejfWz-75" style="edgeStyle=orthogonalEdgeStyle;rounded=0;orthogonalLoop=1;jettySize=auto;html=1;exitX=0.5;exitY=1;exitDx=0;exitDy=0;entryX=0.5;entryY=0;entryDx=0;entryDy=0;" edge="1" parent="P4ueUrn8jgldeYzejfWz-71" source="H0Yiqih6-B8NDiTEWmIC-3" target="kbp1W1BHpDVRfjKskcVf-1">
          <mxGeometry relative="1" as="geometry" />
        </mxCell>
        <mxCell id="H0Yiqih6-B8NDiTEWmIC-3" value="&lt;font size=&quot;3&quot; face=&quot;Lucida Console&quot;&gt;向游戏测发送结果回调&lt;/font&gt;" style="rounded=1;whiteSpace=wrap;html=1;" parent="P4ueUrn8jgldeYzejfWz-71" vertex="1">
          <mxGeometry x="45.63" y="630" width="182.5" height="30" as="geometry" />
        </mxCell>
        <mxCell id="H0Yiqih6-B8NDiTEWmIC-5" style="rounded=0;orthogonalLoop=1;jettySize=auto;html=1;entryX=0.5;entryY=0;entryDx=0;entryDy=0;" parent="P4ueUrn8jgldeYzejfWz-71" source="kbp1W1BHpDVRfjKskcVf-23" target="H0Yiqih6-B8NDiTEWmIC-3" edge="1">
          <mxGeometry relative="1" as="geometry" />
        </mxCell>
        <mxCell id="H0Yiqih6-B8NDiTEWmIC-4" style="rounded=0;orthogonalLoop=1;jettySize=auto;html=1;exitX=0.5;exitY=1;exitDx=0;exitDy=0;entryX=0.5;entryY=0;entryDx=0;entryDy=0;" parent="P4ueUrn8jgldeYzejfWz-71" source="kbp1W1BHpDVRfjKskcVf-33" target="H0Yiqih6-B8NDiTEWmIC-3" edge="1">
          <mxGeometry relative="1" as="geometry" />
        </mxCell>
        <mxCell id="kbp1W1BHpDVRfjKskcVf-1" value="" style="ellipse;html=1;shape=endState;fillColor=#000000;strokeColor=#ff0000;" parent="P4ueUrn8jgldeYzejfWz-71" vertex="1">
          <mxGeometry x="121.88" y="700" width="30" height="30" as="geometry" />
        </mxCell>
      </root>
    </mxGraphModel>
  </diagram>
</mxfile>
